<svg width="500" height="500" viewBox="0 0 500 500" fill="none" xmlns="http://www.w3.org/2000/svg">
<rect width="500" height="500" fill="white"/>
<path d="M245.18 223.382L336 197.435M336 254.113V286.548C335.999 290.776 334.621 294.889 332.074 298.265C329.527 301.64 325.95 304.094 321.884 305.256L310.467 308.517C308.487 309.115 306.408 309.313 304.351 309.101C302.294 308.888 300.3 308.268 298.485 307.277C296.669 306.287 295.069 304.945 293.777 303.33C292.486 301.715 291.528 299.859 290.96 297.871C290.392 295.882 290.226 293.801 290.47 291.747C290.714 289.694 291.364 287.709 292.383 285.909C293.401 284.109 294.767 282.53 296.402 281.263C298.036 279.996 299.907 279.067 301.904 278.53L321.884 272.821C325.95 271.66 329.527 269.206 332.074 265.83C334.621 262.455 335.999 258.342 336 254.113ZM336 254.113V165L245.18 190.948V280.061M245.18 280.061V312.495C245.179 316.724 243.801 320.837 241.254 324.213C238.707 327.588 235.13 330.042 231.064 331.204L219.647 334.464C215.693 335.528 211.479 334.994 207.915 332.978C204.351 330.962 201.724 327.624 200.599 323.687C199.475 319.75 199.944 315.529 201.906 311.934C203.868 308.34 207.164 305.662 211.084 304.477L231.064 298.769C235.13 297.608 238.707 295.153 241.254 291.778C243.801 288.402 245.179 284.289 245.18 280.061Z" stroke="#F97D27" stroke-width="18" stroke-linecap="round" stroke-linejoin="round"/>
<path d="M152.519 125C160.1 125 166.325 130.801 167 138.207V361.322C166.326 368.729 160.1 374.531 152.519 374.531C144.487 374.531 137.976 368.019 137.976 359.987V295.691C137.976 290.196 133.52 285.741 128.024 285.741C122.529 285.741 118.074 290.196 118.074 295.691V329.37C118.074 337.402 111.563 343.914 103.531 343.914C95.4993 343.914 88.9873 337.402 88.9873 329.37V274.259C88.987 268.763 84.5325 264.309 79.0371 264.309C73.5417 264.309 69.0862 268.763 69.0859 274.259V283.444C69.0859 291.476 62.575 297.987 54.543 297.987C46.5111 297.987 40 291.476 40 283.444V234.457C40 226.425 46.5111 219.914 54.543 219.914C62.575 219.914 69.0859 226.425 69.0859 234.457V243.642C69.0859 249.137 73.5415 253.593 79.0371 253.593C84.5326 253.593 88.9873 249.137 88.9873 243.642V214.556C88.9873 206.524 95.4993 200.013 103.531 200.013C111.563 200.013 118.074 206.524 118.074 214.556V266.604C118.074 272.1 122.529 276.556 128.024 276.556C133.52 276.556 137.976 272.1 137.976 266.604V139.543C137.976 131.511 144.487 125 152.519 125Z" fill="#F97D27"/>
<path d="M398 136C406.032 136 412.543 142.511 412.543 150.543V249.407C412.543 252.721 415.23 255.407 418.543 255.407H424.914C428.227 255.407 430.914 252.721 430.914 249.407V237.802C430.914 229.77 437.425 223.259 445.457 223.259C453.489 223.259 460 229.77 460 237.802V317.407C460 325.439 453.489 331.95 445.457 331.95C437.425 331.95 430.914 325.439 430.914 317.407V272.123C430.914 268.81 428.228 266.123 424.914 266.123H418.543C415.229 266.123 412.543 268.809 412.543 272.123V349.556C412.543 357.587 406.032 364.099 398 364.099C389.968 364.099 383.457 357.587 383.457 349.556V285.37C383.457 284.493 383.294 283.654 383 282.881V263.143C383.294 262.369 383.457 261.531 383.457 260.654V150.543C383.457 142.511 389.968 136 398 136Z" fill="#F97D27"/>
</svg>
